<svg xmlns="http://www.w3.org/2000/svg" xmlns:xlink="http://www.w3.org/1999/xlink" width="500" zoomAndPan="magnify" viewBox="0 0 375 374.999991" height="500" preserveAspectRatio="xMidYMid meet" version="1.0"><defs><g/><clipPath id="87498cbc6b"><path d="M 95.285156 165 L 120 165 L 120 196 L 95.285156 196 Z M 95.285156 165 " clip-rule="nonzero"/></clipPath><clipPath id="9560070303"><path d="M 95.285156 142 L 122 142 L 122 164 L 95.285156 164 Z M 95.285156 142 " clip-rule="nonzero"/></clipPath><clipPath id="6bf8f5a600"><path d="M 175.660156 199.3125 L 187.535156 199.3125 L 187.535156 225.09375 L 175.660156 225.09375 Z M 175.660156 199.3125 " clip-rule="nonzero"/></clipPath><clipPath id="0343739d2d"><path d="M 132.5 202.660156 L 162.898438 202.660156 L 162.898438 233.800781 L 132.5 233.800781 Z M 132.5 202.660156 " clip-rule="nonzero"/></clipPath><clipPath id="d9c4eb684f"><path d="M 156 215 L 182 215 L 182 233.867188 L 156 233.867188 Z M 156 215 " clip-rule="nonzero"/></clipPath></defs><path fill="#233dff" d="M 175.679688 211.285156 C 176.414062 210.792969 177.101562 210.230469 177.738281 209.597656 C 186.625 200.746094 181.761719 181.523438 166.871094 166.660156 C 151.976562 151.796875 132.699219 146.925781 123.808594 155.773438 C 123.171875 156.410156 122.605469 157.097656 122.109375 157.835938 C 131.667969 151.410156 149.285156 156.59375 163.117188 170.402344 C 176.945312 184.203125 182.125 201.757812 175.679688 211.285156 " fill-opacity="1" fill-rule="nonzero"/><g clip-path="url(#87498cbc6b)"><path fill="#5cb6f9" d="M 115.890625 165.585938 L 95.386719 165.585938 C 95.289062 174.746094 98.785156 185.476562 105.390625 195.90625 L 119.660156 181.683594 C 117.121094 176.050781 115.820312 170.519531 115.890625 165.585938 " fill-opacity="1" fill-rule="nonzero"/></g><g clip-path="url(#9560070303)"><path fill="#5cb6f9" d="M 120.859375 152.542969 C 121.042969 152.363281 121.226562 152.1875 121.414062 152.019531 L 112.117188 142.753906 C 108.160156 143.742188 104.683594 145.59375 101.902344 148.363281 C 98.078125 152.171875 95.988281 157.292969 95.5 163.171875 L 116.039062 163.171875 C 116.511719 158.964844 118.089844 155.304688 120.859375 152.542969 " fill-opacity="1" fill-rule="nonzero"/></g><g clip-path="url(#6bf8f5a600)"><path fill="#5cb6f9" d="M 186.195312 199.417969 C 186.1875 204.777344 184.585938 209.445312 181.222656 212.792969 C 179.679688 214.328125 177.855469 215.496094 175.8125 216.308594 L 182.984375 225.050781 C 187.761719 218.617188 188.679688 209.457031 186.195312 199.417969 " fill-opacity="1" fill-rule="nonzero"/></g><path fill="#5cb6f9" d="M 133.027344 200.605469 C 127.789062 195.378906 123.660156 189.667969 120.769531 183.992188 L 106.746094 197.96875 C 109.855469 202.570312 113.566406 207.085938 117.847656 211.359375 C 121.832031 215.339844 126.035156 218.828125 130.320312 221.800781 L 133.140625 200.71875 C 133.101562 200.683594 133.0625 200.644531 133.027344 200.605469 " fill-opacity="1" fill-rule="nonzero"/><g clip-path="url(#0343739d2d)"><path fill="#5cb6f9" d="M 135.308594 202.785156 L 132.5625 223.300781 C 142.925781 230.003906 153.636719 233.660156 162.855469 233.800781 L 152.625 214.230469 C 146.789062 211.699219 140.832031 207.839844 135.308594 202.785156 " fill-opacity="1" fill-rule="nonzero"/></g><g clip-path="url(#d9c4eb684f)"><path fill="#5cb6f9" d="M 156.054688 215.574219 L 165.550781 233.738281 C 171.707031 233.351562 177.0625 231.269531 181.019531 227.332031 C 181.148438 227.199219 181.273438 227.066406 181.398438 226.933594 L 173.332031 217.097656 C 168.332031 218.324219 162.332031 217.753906 156.054688 215.574219 " fill-opacity="1" fill-rule="nonzero"/></g><path fill="#5cb6f9" d="M 145.9375 149.730469 C 135.007812 143.617188 123.988281 140.929688 114.984375 142.195312 L 123.351562 150.535156 C 129.046875 146.828125 137.21875 146.722656 145.9375 149.730469 " fill-opacity="1" fill-rule="nonzero"/><g fill="#12229d" fill-opacity="1"><g transform="translate(198.749991, 174.999949)"><g><path d="M 19.40625 -25.203125 C 19.8125 -25.203125 20.015625 -25 20.015625 -24.59375 L 20.015625 -21.421875 C 20.015625 -21.015625 19.8125 -20.8125 19.40625 -20.8125 L 13.171875 -20.8125 C 13.023438 -20.8125 12.953125 -20.738281 12.953125 -20.59375 L 12.953125 -0.609375 C 12.953125 -0.203125 12.75 0 12.34375 0 L 8.5 0 C 8.09375 0 7.890625 -0.203125 7.890625 -0.609375 L 7.890625 -20.59375 C 7.890625 -20.738281 7.816406 -20.8125 7.671875 -20.8125 L 1.625 -20.8125 C 1.21875 -20.8125 1.015625 -21.015625 1.015625 -21.421875 L 1.015625 -24.59375 C 1.015625 -25 1.21875 -25.203125 1.625 -25.203125 Z M 19.40625 -25.203125 "/></g></g></g><g fill="#12229d" fill-opacity="1"><g transform="translate(219.810037, 174.999949)"><g><path d="M 18.390625 0 C 18.054688 0 17.832031 -0.164062 17.71875 -0.5 L 16.703125 -3.859375 C 16.679688 -3.972656 16.609375 -4.03125 16.484375 -4.03125 L 7.671875 -4.03125 C 7.546875 -4.03125 7.472656 -3.972656 7.453125 -3.859375 L 6.4375 -0.5 C 6.320312 -0.164062 6.097656 0 5.765625 0 L 1.578125 0 C 1.367188 0 1.210938 -0.0625 1.109375 -0.1875 C 1.015625 -0.320312 1.003906 -0.488281 1.078125 -0.6875 L 8.75 -24.703125 C 8.863281 -25.035156 9.09375 -25.203125 9.4375 -25.203125 L 14.71875 -25.203125 C 15.0625 -25.203125 15.289062 -25.035156 15.40625 -24.703125 L 23.078125 -0.6875 C 23.097656 -0.632812 23.109375 -0.5625 23.109375 -0.46875 C 23.109375 -0.320312 23.0625 -0.207031 22.96875 -0.125 C 22.875 -0.0390625 22.742188 0 22.578125 0 Z M 8.71875 -8.203125 C 8.6875 -8.035156 8.742188 -7.953125 8.890625 -7.953125 L 15.265625 -7.953125 C 15.410156 -7.953125 15.46875 -8.035156 15.4375 -8.203125 L 12.203125 -19.1875 C 12.179688 -19.28125 12.140625 -19.328125 12.078125 -19.328125 C 12.015625 -19.328125 11.960938 -19.28125 11.921875 -19.1875 Z M 8.71875 -8.203125 "/></g></g></g><g fill="#12229d" fill-opacity="1"><g transform="translate(243.966087, 174.999949)"><g><path d="M 10.734375 0.28125 C 8.859375 0.28125 7.210938 -0.0234375 5.796875 -0.640625 C 4.378906 -1.265625 3.285156 -2.140625 2.515625 -3.265625 C 1.753906 -4.398438 1.375 -5.722656 1.375 -7.234375 L 1.375 -7.84375 C 1.375 -8.25 1.578125 -8.453125 1.984375 -8.453125 L 5.765625 -8.453125 C 6.171875 -8.453125 6.375 -8.296875 6.375 -7.984375 L 6.375 -7.484375 C 6.375 -6.523438 6.8125 -5.710938 7.6875 -5.046875 C 8.5625 -4.390625 9.707031 -4.0625 11.125 -4.0625 C 12.394531 -4.0625 13.335938 -4.332031 13.953125 -4.875 C 14.566406 -5.414062 14.875 -6.082031 14.875 -6.875 C 14.875 -7.445312 14.679688 -7.929688 14.296875 -8.328125 C 13.910156 -8.722656 13.390625 -9.070312 12.734375 -9.375 C 12.085938 -9.675781 11.046875 -10.09375 9.609375 -10.625 C 7.972656 -11.175781 6.601562 -11.738281 5.5 -12.3125 C 4.40625 -12.882812 3.472656 -13.664062 2.703125 -14.65625 C 1.929688 -15.65625 1.546875 -16.890625 1.546875 -18.359375 C 1.546875 -19.796875 1.914062 -21.054688 2.65625 -22.140625 C 3.40625 -23.222656 4.445312 -24.050781 5.78125 -24.625 C 7.113281 -25.195312 8.628906 -25.484375 10.328125 -25.484375 C 12.148438 -25.484375 13.78125 -25.160156 15.21875 -24.515625 C 16.664062 -23.867188 17.789062 -22.960938 18.59375 -21.796875 C 19.394531 -20.628906 19.796875 -19.28125 19.796875 -17.75 L 19.796875 -17.390625 C 19.796875 -16.984375 19.59375 -16.78125 19.1875 -16.78125 L 15.40625 -16.78125 C 15 -16.78125 14.796875 -16.898438 14.796875 -17.140625 L 14.796875 -17.5 C 14.796875 -18.507812 14.378906 -19.363281 13.546875 -20.0625 C 12.722656 -20.769531 11.59375 -21.125 10.15625 -21.125 C 9 -21.125 8.109375 -20.882812 7.484375 -20.40625 C 6.859375 -19.925781 6.546875 -19.269531 6.546875 -18.4375 C 6.546875 -17.832031 6.722656 -17.328125 7.078125 -16.921875 C 7.441406 -16.515625 7.988281 -16.140625 8.71875 -15.796875 C 9.457031 -15.460938 10.59375 -15.035156 12.125 -14.515625 C 13.8125 -13.890625 15.144531 -13.34375 16.125 -12.875 C 17.113281 -12.40625 17.992188 -11.6875 18.765625 -10.71875 C 19.546875 -9.757812 19.9375 -8.523438 19.9375 -7.015625 C 19.9375 -5.554688 19.554688 -4.273438 18.796875 -3.171875 C 18.046875 -2.066406 16.976562 -1.210938 15.59375 -0.609375 C 14.21875 -0.015625 12.597656 0.28125 10.734375 0.28125 Z M 10.734375 0.28125 "/></g></g></g><g fill="#12229d" fill-opacity="1"><g transform="translate(265.278132, 174.999949)"><g><path d="M 2.8125 0 C 2.40625 0 2.203125 -0.203125 2.203125 -0.609375 L 2.203125 -24.59375 C 2.203125 -25 2.40625 -25.203125 2.8125 -25.203125 L 6.65625 -25.203125 C 7.0625 -25.203125 7.265625 -25 7.265625 -24.59375 L 7.265625 -14.765625 C 7.265625 -14.660156 7.296875 -14.597656 7.359375 -14.578125 C 7.421875 -14.554688 7.476562 -14.582031 7.53125 -14.65625 L 15.734375 -24.84375 C 15.898438 -25.082031 16.148438 -25.203125 16.484375 -25.203125 L 20.84375 -25.203125 C 21.007812 -25.203125 21.140625 -25.171875 21.234375 -25.109375 C 21.335938 -25.046875 21.390625 -24.957031 21.390625 -24.84375 C 21.390625 -24.75 21.328125 -24.613281 21.203125 -24.4375 L 13.359375 -14.4375 C 13.285156 -14.363281 13.285156 -14.265625 13.359375 -14.140625 L 21.671875 -0.71875 C 21.742188 -0.625 21.78125 -0.515625 21.78125 -0.390625 C 21.78125 -0.128906 21.613281 0 21.28125 0 L 16.921875 0 C 16.609375 0 16.367188 -0.128906 16.203125 -0.390625 L 9.90625 -10.625 C 9.875 -10.695312 9.820312 -10.734375 9.75 -10.734375 C 9.675781 -10.734375 9.617188 -10.695312 9.578125 -10.625 L 7.375 -7.8125 C 7.300781 -7.71875 7.265625 -7.632812 7.265625 -7.5625 L 7.265625 -0.609375 C 7.265625 -0.203125 7.0625 0 6.65625 0 Z M 2.8125 0 "/></g></g></g><g fill="#12229d" fill-opacity="1"><g transform="translate(287.814179, 174.999949)"><g><path d="M 19.6875 -21.453125 C 19.6875 -21.046875 19.484375 -20.84375 19.078125 -20.84375 L 7.484375 -20.84375 C 7.335938 -20.84375 7.265625 -20.769531 7.265625 -20.625 L 7.265625 -15.125 C 7.265625 -14.976562 7.335938 -14.90625 7.484375 -14.90625 L 15.015625 -14.90625 C 15.421875 -14.90625 15.625 -14.703125 15.625 -14.296875 L 15.625 -11.15625 C 15.625 -10.75 15.421875 -10.546875 15.015625 -10.546875 L 7.484375 -10.546875 C 7.335938 -10.546875 7.265625 -10.472656 7.265625 -10.328125 L 7.265625 -4.578125 C 7.265625 -4.429688 7.335938 -4.359375 7.484375 -4.359375 L 19.078125 -4.359375 C 19.484375 -4.359375 19.6875 -4.15625 19.6875 -3.75 L 19.6875 -0.609375 C 19.6875 -0.203125 19.484375 0 19.078125 0 L 2.8125 0 C 2.40625 0 2.203125 -0.203125 2.203125 -0.609375 L 2.203125 -24.59375 C 2.203125 -25 2.40625 -25.203125 2.8125 -25.203125 L 19.078125 -25.203125 C 19.484375 -25.203125 19.6875 -25 19.6875 -24.59375 Z M 19.6875 -21.453125 "/></g></g></g><g fill="#12229d" fill-opacity="1"><g transform="translate(308.838222, 174.999949)"><g><path d="M 16.15625 0 C 15.851562 0 15.613281 -0.15625 15.4375 -0.46875 L 11.015625 -10.265625 C 10.960938 -10.378906 10.878906 -10.4375 10.765625 -10.4375 L 7.484375 -10.4375 C 7.335938 -10.4375 7.265625 -10.363281 7.265625 -10.21875 L 7.265625 -0.609375 C 7.265625 -0.203125 7.0625 0 6.65625 0 L 2.8125 0 C 2.40625 0 2.203125 -0.203125 2.203125 -0.609375 L 2.203125 -24.625 C 2.203125 -25.03125 2.40625 -25.234375 2.8125 -25.234375 L 12.921875 -25.234375 C 14.460938 -25.234375 15.8125 -24.914062 16.96875 -24.28125 C 18.132812 -23.644531 19.035156 -22.75 19.671875 -21.59375 C 20.304688 -20.445312 20.625 -19.128906 20.625 -17.640625 C 20.625 -16.003906 20.21875 -14.597656 19.40625 -13.421875 C 18.59375 -12.242188 17.460938 -11.414062 16.015625 -10.9375 C 15.941406 -10.914062 15.894531 -10.875 15.875 -10.8125 C 15.851562 -10.757812 15.863281 -10.707031 15.90625 -10.65625 L 20.65625 -0.71875 C 20.726562 -0.625 20.765625 -0.515625 20.765625 -0.390625 C 20.765625 -0.273438 20.71875 -0.179688 20.625 -0.109375 C 20.53125 -0.0351562 20.398438 0 20.234375 0 Z M 7.484375 -20.84375 C 7.335938 -20.84375 7.265625 -20.769531 7.265625 -20.625 L 7.265625 -14.578125 C 7.265625 -14.429688 7.335938 -14.359375 7.484375 -14.359375 L 12.171875 -14.359375 C 13.179688 -14.359375 14.003906 -14.648438 14.640625 -15.234375 C 15.273438 -15.828125 15.59375 -16.601562 15.59375 -17.5625 C 15.59375 -18.53125 15.273438 -19.316406 14.640625 -19.921875 C 14.003906 -20.535156 13.179688 -20.84375 12.171875 -20.84375 Z M 7.484375 -20.84375 "/></g></g></g><g fill="#12229d" fill-opacity="1"><g transform="translate(210.468742, 197.549987)"><g><path d="M 5.65625 -11.21875 C 6.332031 -11.21875 6.925781 -11.078125 7.4375 -10.796875 C 7.945312 -10.523438 8.34375 -10.132812 8.625 -9.625 C 8.914062 -9.113281 9.0625 -8.53125 9.0625 -7.875 C 9.0625 -7.21875 8.914062 -6.640625 8.625 -6.140625 C 8.332031 -5.640625 7.921875 -5.253906 7.390625 -4.984375 C 6.867188 -4.710938 6.257812 -4.578125 5.5625 -4.578125 L 3.03125 -4.578125 C 2.957031 -4.578125 2.921875 -4.546875 2.921875 -4.484375 L 2.921875 -0.25 C 2.921875 -0.0820312 2.835938 0 2.671875 0 L 1.328125 0 C 1.160156 0 1.078125 -0.0820312 1.078125 -0.25 L 1.078125 -10.953125 C 1.078125 -11.128906 1.160156 -11.21875 1.328125 -11.21875 Z M 5.390625 -6.078125 C 5.929688 -6.078125 6.367188 -6.238281 6.703125 -6.5625 C 7.035156 -6.882812 7.203125 -7.304688 7.203125 -7.828125 C 7.203125 -8.359375 7.035156 -8.785156 6.703125 -9.109375 C 6.367188 -9.441406 5.929688 -9.609375 5.390625 -9.609375 L 3.03125 -9.609375 C 2.957031 -9.609375 2.921875 -9.578125 2.921875 -9.515625 L 2.921875 -6.171875 C 2.921875 -6.109375 2.957031 -6.078125 3.03125 -6.078125 Z M 5.390625 -6.078125 "/></g></g></g><g fill="#12229d" fill-opacity="1"><g transform="translate(222.386457, 197.549987)"><g><path d="M 7.5 0 C 7.351562 0 7.253906 -0.0625 7.203125 -0.1875 L 5.109375 -4.765625 C 5.097656 -4.804688 5.054688 -4.828125 4.984375 -4.828125 L 3.125 -4.828125 C 3.0625 -4.828125 3.03125 -4.796875 3.03125 -4.734375 L 3.03125 -0.25 C 3.03125 -0.0820312 2.941406 0 2.765625 0 L 1.421875 0 C 1.253906 0 1.171875 -0.0820312 1.171875 -0.25 L 1.171875 -10.953125 C 1.171875 -11.128906 1.253906 -11.21875 1.421875 -11.21875 L 5.765625 -11.21875 C 6.410156 -11.21875 6.984375 -11.082031 7.484375 -10.8125 C 7.984375 -10.539062 8.375 -10.15625 8.65625 -9.65625 C 8.9375 -9.15625 9.078125 -8.585938 9.078125 -7.953125 C 9.078125 -7.210938 8.882812 -6.582031 8.5 -6.0625 C 8.125 -5.550781 7.601562 -5.203125 6.9375 -5.015625 C 6.90625 -4.992188 6.882812 -4.96875 6.875 -4.9375 C 6.863281 -4.914062 6.867188 -4.894531 6.890625 -4.875 L 9.109375 -0.296875 L 9.140625 -0.171875 C 9.140625 -0.0546875 9.0625 0 8.90625 0 Z M 3.125 -9.609375 C 3.0625 -9.609375 3.03125 -9.578125 3.03125 -9.515625 L 3.03125 -6.375 C 3.03125 -6.300781 3.0625 -6.265625 3.125 -6.265625 L 5.5 -6.265625 C 6.007812 -6.265625 6.421875 -6.414062 6.734375 -6.71875 C 7.054688 -7.03125 7.21875 -7.429688 7.21875 -7.921875 C 7.21875 -8.421875 7.054688 -8.828125 6.734375 -9.140625 C 6.421875 -9.453125 6.007812 -9.609375 5.5 -9.609375 Z M 3.125 -9.609375 "/></g></g></g><g fill="#12229d" fill-opacity="1"><g transform="translate(234.592093, 197.549987)"><g><path d="M 4.953125 0.15625 C 4.160156 0.15625 3.453125 -0.00390625 2.828125 -0.328125 C 2.210938 -0.648438 1.734375 -1.109375 1.390625 -1.703125 C 1.054688 -2.304688 0.890625 -3 0.890625 -3.78125 L 0.890625 -7.421875 C 0.890625 -8.191406 1.0625 -8.875 1.40625 -9.46875 C 1.75 -10.0625 2.226562 -10.519531 2.84375 -10.84375 C 3.457031 -11.164062 4.160156 -11.328125 4.953125 -11.328125 C 5.765625 -11.328125 6.476562 -11.164062 7.09375 -10.84375 C 7.707031 -10.519531 8.1875 -10.0625 8.53125 -9.46875 C 8.875 -8.875 9.046875 -8.191406 9.046875 -7.421875 L 9.046875 -3.78125 C 9.046875 -3 8.875 -2.304688 8.53125 -1.703125 C 8.1875 -1.109375 7.707031 -0.648438 7.09375 -0.328125 C 6.476562 -0.00390625 5.765625 0.15625 4.953125 0.15625 Z M 4.953125 -1.4375 C 5.628906 -1.4375 6.171875 -1.644531 6.578125 -2.0625 C 6.984375 -2.476562 7.1875 -3.03125 7.1875 -3.71875 L 7.1875 -7.4375 C 7.1875 -8.132812 6.984375 -8.691406 6.578125 -9.109375 C 6.171875 -9.523438 5.628906 -9.734375 4.953125 -9.734375 C 4.296875 -9.734375 3.765625 -9.523438 3.359375 -9.109375 C 2.953125 -8.691406 2.75 -8.132812 2.75 -7.4375 L 2.75 -3.71875 C 2.75 -3.03125 2.953125 -2.476562 3.359375 -2.0625 C 3.765625 -1.644531 4.296875 -1.4375 4.953125 -1.4375 Z M 4.953125 -1.4375 "/></g></g></g><g fill="#12229d" fill-opacity="1"><g transform="translate(246.925696, 197.549987)"><g><path d="M 4.28125 0.125 C 3.507812 0.125 2.828125 -0.0195312 2.234375 -0.3125 C 1.640625 -0.601562 1.175781 -1.015625 0.84375 -1.546875 C 0.519531 -2.085938 0.359375 -2.707031 0.359375 -3.40625 L 0.359375 -4.015625 C 0.359375 -4.179688 0.441406 -4.265625 0.609375 -4.265625 L 1.953125 -4.265625 C 2.117188 -4.265625 2.203125 -4.179688 2.203125 -4.015625 L 2.203125 -3.40625 C 2.203125 -2.832031 2.394531 -2.363281 2.78125 -2 C 3.164062 -1.644531 3.664062 -1.46875 4.28125 -1.46875 C 4.90625 -1.46875 5.410156 -1.644531 5.796875 -2 C 6.179688 -2.363281 6.375 -2.832031 6.375 -3.40625 L 6.375 -10.9375 C 6.375 -11.113281 6.457031 -11.203125 6.625 -11.203125 L 7.96875 -11.203125 C 8.132812 -11.203125 8.21875 -11.113281 8.21875 -10.9375 L 8.21875 -3.40625 C 8.21875 -2.707031 8.050781 -2.085938 7.71875 -1.546875 C 7.394531 -1.015625 6.9375 -0.601562 6.34375 -0.3125 C 5.75 -0.0195312 5.0625 0.125 4.28125 0.125 Z M 4.28125 0.125 "/></g></g></g><g fill="#12229d" fill-opacity="1"><g transform="translate(258.715433, 197.549987)"><g><path d="M 8.75 -9.859375 C 8.75 -9.679688 8.664062 -9.59375 8.5 -9.59375 L 3.125 -9.59375 C 3.0625 -9.59375 3.03125 -9.5625 3.03125 -9.5 L 3.03125 -6.546875 C 3.03125 -6.484375 3.0625 -6.453125 3.125 -6.453125 L 6.703125 -6.453125 C 6.867188 -6.453125 6.953125 -6.363281 6.953125 -6.1875 L 6.953125 -5.109375 C 6.953125 -4.929688 6.867188 -4.84375 6.703125 -4.84375 L 3.125 -4.84375 C 3.0625 -4.84375 3.03125 -4.8125 3.03125 -4.75 L 3.03125 -1.703125 C 3.03125 -1.628906 3.0625 -1.59375 3.125 -1.59375 L 8.5 -1.59375 C 8.664062 -1.59375 8.75 -1.507812 8.75 -1.34375 L 8.75 -0.25 C 8.75 -0.0820312 8.664062 0 8.5 0 L 1.421875 0 C 1.253906 0 1.171875 -0.0820312 1.171875 -0.25 L 1.171875 -10.9375 C 1.171875 -11.113281 1.253906 -11.203125 1.421875 -11.203125 L 8.5 -11.203125 C 8.664062 -11.203125 8.75 -11.113281 8.75 -10.9375 Z M 8.75 -9.859375 "/></g></g></g><g fill="#12229d" fill-opacity="1"><g transform="translate(270.585153, 197.549987)"><g><path d="M 4.90625 0.125 C 4.113281 0.125 3.410156 -0.03125 2.796875 -0.34375 C 2.191406 -0.65625 1.722656 -1.09375 1.390625 -1.65625 C 1.054688 -2.226562 0.890625 -2.882812 0.890625 -3.625 L 0.890625 -7.578125 C 0.890625 -8.328125 1.054688 -8.984375 1.390625 -9.546875 C 1.722656 -10.117188 2.191406 -10.554688 2.796875 -10.859375 C 3.410156 -11.171875 4.113281 -11.328125 4.90625 -11.328125 C 5.695312 -11.328125 6.394531 -11.175781 7 -10.875 C 7.613281 -10.582031 8.082031 -10.160156 8.40625 -9.609375 C 8.738281 -9.066406 8.90625 -8.441406 8.90625 -7.734375 C 8.90625 -7.617188 8.828125 -7.550781 8.671875 -7.53125 L 7.3125 -7.453125 L 7.25 -7.453125 C 7.125 -7.453125 7.0625 -7.476562 7.0625 -7.53125 L 7.0625 -7.625 C 7.0625 -8.257812 6.863281 -8.769531 6.46875 -9.15625 C 6.082031 -9.539062 5.5625 -9.734375 4.90625 -9.734375 C 4.257812 -9.734375 3.738281 -9.539062 3.34375 -9.15625 C 2.945312 -8.769531 2.75 -8.257812 2.75 -7.625 L 2.75 -3.546875 C 2.75 -2.929688 2.945312 -2.429688 3.34375 -2.046875 C 3.738281 -1.660156 4.257812 -1.46875 4.90625 -1.46875 C 5.5625 -1.46875 6.082031 -1.65625 6.46875 -2.03125 C 6.863281 -2.414062 7.0625 -2.921875 7.0625 -3.546875 C 7.0625 -3.597656 7.082031 -3.644531 7.125 -3.6875 C 7.175781 -3.726562 7.238281 -3.742188 7.3125 -3.734375 L 8.65625 -3.65625 C 8.820312 -3.632812 8.90625 -3.609375 8.90625 -3.578125 L 8.90625 -3.5 C 8.90625 -2.78125 8.738281 -2.144531 8.40625 -1.59375 C 8.082031 -1.039062 7.613281 -0.613281 7 -0.3125 C 6.394531 -0.0195312 5.695312 0.125 4.90625 0.125 Z M 4.90625 0.125 "/></g></g></g><g fill="#12229d" fill-opacity="1"><g transform="translate(282.71082, 197.549987)"><g><path d="M 8.46875 -11.203125 C 8.632812 -11.203125 8.71875 -11.113281 8.71875 -10.9375 L 8.71875 -9.84375 C 8.71875 -9.664062 8.632812 -9.578125 8.46875 -9.578125 L 5.59375 -9.578125 C 5.53125 -9.578125 5.5 -9.546875 5.5 -9.484375 L 5.5 -0.25 C 5.5 -0.0820312 5.414062 0 5.25 0 L 3.90625 0 C 3.726562 0 3.640625 -0.0820312 3.640625 -0.25 L 3.640625 -9.484375 C 3.640625 -9.546875 3.609375 -9.578125 3.546875 -9.578125 L 0.796875 -9.578125 C 0.628906 -9.578125 0.546875 -9.664062 0.546875 -9.84375 L 0.546875 -10.9375 C 0.546875 -11.113281 0.628906 -11.203125 0.796875 -11.203125 Z M 8.46875 -11.203125 "/></g></g></g><g fill="#12229d" fill-opacity="1"><g transform="translate(210.468742, 219.299986)"><g><path d="M 1.421875 0 C 1.253906 0 1.171875 -0.0820312 1.171875 -0.25 L 1.171875 -10.9375 C 1.171875 -11.113281 1.253906 -11.203125 1.421875 -11.203125 L 2.78125 -11.203125 C 2.9375 -11.203125 3.046875 -11.144531 3.109375 -11.03125 L 5.59375 -6.984375 C 5.613281 -6.953125 5.640625 -6.9375 5.671875 -6.9375 C 5.703125 -6.9375 5.722656 -6.953125 5.734375 -6.984375 L 8.25 -11.03125 C 8.320312 -11.144531 8.429688 -11.203125 8.578125 -11.203125 L 9.921875 -11.203125 C 10.085938 -11.203125 10.171875 -11.113281 10.171875 -10.9375 L 10.171875 -0.25 C 10.171875 -0.0820312 10.085938 0 9.921875 0 L 8.578125 0 C 8.398438 0 8.3125 -0.0820312 8.3125 -0.25 L 8.3125 -7.828125 C 8.3125 -7.867188 8.296875 -7.894531 8.265625 -7.90625 C 8.242188 -7.914062 8.222656 -7.898438 8.203125 -7.859375 L 6.296875 -4.734375 C 6.234375 -4.617188 6.128906 -4.5625 5.984375 -4.5625 L 5.359375 -4.5625 C 5.210938 -4.5625 5.109375 -4.617188 5.046875 -4.734375 L 3.140625 -7.859375 C 3.117188 -7.898438 3.09375 -7.914062 3.0625 -7.90625 C 3.039062 -7.894531 3.03125 -7.867188 3.03125 -7.828125 L 3.03125 -0.25 C 3.03125 -0.0820312 2.941406 0 2.765625 0 Z M 1.421875 0 "/></g></g></g><g fill="#12229d" fill-opacity="1"><g transform="translate(224.210015, 219.299986)"><g><path d="M 8.171875 0 C 8.023438 0 7.929688 -0.0664062 7.890625 -0.203125 L 7.390625 -1.859375 C 7.378906 -1.910156 7.34375 -1.9375 7.28125 -1.9375 L 3.09375 -1.9375 C 3.019531 -1.9375 2.976562 -1.910156 2.96875 -1.859375 L 2.484375 -0.203125 C 2.441406 -0.0664062 2.34375 0 2.1875 0 L 0.734375 0 C 0.648438 0 0.585938 -0.0234375 0.546875 -0.078125 C 0.515625 -0.128906 0.507812 -0.195312 0.53125 -0.28125 L 3.953125 -10.984375 C 3.992188 -11.128906 4.085938 -11.203125 4.234375 -11.203125 L 6.109375 -11.203125 C 6.265625 -11.203125 6.363281 -11.128906 6.40625 -10.984375 L 9.84375 -0.28125 C 9.851562 -0.257812 9.859375 -0.226562 9.859375 -0.1875 C 9.859375 -0.0625 9.78125 0 9.625 0 Z M 3.46875 -3.5 C 3.457031 -3.425781 3.484375 -3.390625 3.546875 -3.390625 L 6.8125 -3.390625 C 6.875 -3.390625 6.898438 -3.425781 6.890625 -3.5 L 5.25 -8.9375 C 5.238281 -8.988281 5.21875 -9.015625 5.1875 -9.015625 C 5.164062 -9.015625 5.144531 -8.988281 5.125 -8.9375 Z M 3.46875 -3.5 "/></g></g></g><g fill="#12229d" fill-opacity="1"><g transform="translate(236.97552, 219.299986)"><g><path d="M 1.421875 0 C 1.253906 0 1.171875 -0.0820312 1.171875 -0.25 L 1.171875 -10.9375 C 1.171875 -11.113281 1.253906 -11.203125 1.421875 -11.203125 L 2.703125 -11.203125 C 2.847656 -11.203125 2.957031 -11.144531 3.03125 -11.03125 L 7.5 -3.703125 C 7.519531 -3.648438 7.539062 -3.628906 7.5625 -3.640625 C 7.59375 -3.648438 7.609375 -3.679688 7.609375 -3.734375 L 7.609375 -10.9375 C 7.609375 -11.113281 7.695312 -11.203125 7.875 -11.203125 L 9.21875 -11.203125 C 9.382812 -11.203125 9.46875 -11.113281 9.46875 -10.9375 L 9.46875 -0.25 C 9.46875 -0.0820312 9.382812 0 9.21875 0 L 7.90625 0 C 7.757812 0 7.648438 -0.0546875 7.578125 -0.171875 L 3.109375 -7.546875 C 3.085938 -7.585938 3.0625 -7.601562 3.03125 -7.59375 C 3 -7.582031 2.984375 -7.554688 2.984375 -7.515625 L 3.015625 -0.25 C 3.015625 -0.0820312 2.925781 0 2.75 0 Z M 1.421875 0 "/></g></g></g><g fill="#12229d" fill-opacity="1"><g transform="translate(249.996958, 219.299986)"><g><path d="M 8.171875 0 C 8.023438 0 7.929688 -0.0664062 7.890625 -0.203125 L 7.390625 -1.859375 C 7.378906 -1.910156 7.34375 -1.9375 7.28125 -1.9375 L 3.09375 -1.9375 C 3.019531 -1.9375 2.976562 -1.910156 2.96875 -1.859375 L 2.484375 -0.203125 C 2.441406 -0.0664062 2.34375 0 2.1875 0 L 0.734375 0 C 0.648438 0 0.585938 -0.0234375 0.546875 -0.078125 C 0.515625 -0.128906 0.507812 -0.195312 0.53125 -0.28125 L 3.953125 -10.984375 C 3.992188 -11.128906 4.085938 -11.203125 4.234375 -11.203125 L 6.109375 -11.203125 C 6.265625 -11.203125 6.363281 -11.128906 6.40625 -10.984375 L 9.84375 -0.28125 C 9.851562 -0.257812 9.859375 -0.226562 9.859375 -0.1875 C 9.859375 -0.0625 9.78125 0 9.625 0 Z M 3.46875 -3.5 C 3.457031 -3.425781 3.484375 -3.390625 3.546875 -3.390625 L 6.8125 -3.390625 C 6.875 -3.390625 6.898438 -3.425781 6.890625 -3.5 L 5.25 -8.9375 C 5.238281 -8.988281 5.21875 -9.015625 5.1875 -9.015625 C 5.164062 -9.015625 5.144531 -8.988281 5.125 -8.9375 Z M 3.46875 -3.5 "/></g></g></g><g fill="#12229d" fill-opacity="1"><g transform="translate(262.762464, 219.299986)"><g><path d="M 4.90625 0.125 C 4.113281 0.125 3.410156 -0.03125 2.796875 -0.34375 C 2.191406 -0.65625 1.722656 -1.097656 1.390625 -1.671875 C 1.054688 -2.253906 0.890625 -2.914062 0.890625 -3.65625 L 0.890625 -7.53125 C 0.890625 -8.289062 1.054688 -8.957031 1.390625 -9.53125 C 1.722656 -10.101562 2.191406 -10.546875 2.796875 -10.859375 C 3.410156 -11.171875 4.113281 -11.328125 4.90625 -11.328125 C 5.695312 -11.328125 6.394531 -11.171875 7 -10.859375 C 7.601562 -10.554688 8.066406 -10.132812 8.390625 -9.59375 C 8.722656 -9.0625 8.890625 -8.460938 8.890625 -7.796875 L 8.890625 -7.734375 C 8.890625 -7.554688 8.804688 -7.46875 8.640625 -7.46875 L 7.3125 -7.46875 C 7.238281 -7.46875 7.175781 -7.476562 7.125 -7.5 C 7.082031 -7.53125 7.0625 -7.566406 7.0625 -7.609375 L 7.0625 -7.75 C 7.0625 -8.320312 6.863281 -8.796875 6.46875 -9.171875 C 6.082031 -9.546875 5.5625 -9.734375 4.90625 -9.734375 C 4.257812 -9.734375 3.738281 -9.535156 3.34375 -9.140625 C 2.945312 -8.753906 2.75 -8.238281 2.75 -7.59375 L 2.75 -3.59375 C 2.75 -2.957031 2.957031 -2.441406 3.375 -2.046875 C 3.789062 -1.660156 4.328125 -1.46875 4.984375 -1.46875 C 5.628906 -1.46875 6.132812 -1.632812 6.5 -1.96875 C 6.875 -2.3125 7.0625 -2.773438 7.0625 -3.359375 L 7.0625 -4.34375 C 7.0625 -4.40625 7.023438 -4.4375 6.953125 -4.4375 L 5.078125 -4.4375 C 4.898438 -4.4375 4.8125 -4.519531 4.8125 -4.6875 L 4.8125 -5.75 C 4.8125 -5.914062 4.898438 -6 5.078125 -6 L 8.640625 -6 C 8.804688 -6 8.890625 -5.914062 8.890625 -5.75 L 8.890625 -3.765625 C 8.890625 -2.535156 8.53125 -1.578125 7.8125 -0.890625 C 7.09375 -0.210938 6.125 0.125 4.90625 0.125 Z M 4.90625 0.125 "/></g></g></g><g fill="#12229d" fill-opacity="1"><g transform="translate(274.856134, 219.299986)"><g><path d="M 1.421875 0 C 1.253906 0 1.171875 -0.0820312 1.171875 -0.25 L 1.171875 -10.9375 C 1.171875 -11.113281 1.253906 -11.203125 1.421875 -11.203125 L 2.765625 -11.203125 C 2.941406 -11.203125 3.03125 -11.113281 3.03125 -10.9375 L 3.03125 -0.25 C 3.03125 -0.0820312 2.941406 0 2.765625 0 Z M 1.421875 0 "/></g></g></g><g fill="#12229d" fill-opacity="1"><g transform="translate(281.447129, 219.299986)"><g><path d="M 1.421875 0 C 1.253906 0 1.171875 -0.0820312 1.171875 -0.25 L 1.171875 -10.9375 C 1.171875 -11.113281 1.253906 -11.203125 1.421875 -11.203125 L 2.703125 -11.203125 C 2.847656 -11.203125 2.957031 -11.144531 3.03125 -11.03125 L 7.5 -3.703125 C 7.519531 -3.648438 7.539062 -3.628906 7.5625 -3.640625 C 7.59375 -3.648438 7.609375 -3.679688 7.609375 -3.734375 L 7.609375 -10.9375 C 7.609375 -11.113281 7.695312 -11.203125 7.875 -11.203125 L 9.21875 -11.203125 C 9.382812 -11.203125 9.46875 -11.113281 9.46875 -10.9375 L 9.46875 -0.25 C 9.46875 -0.0820312 9.382812 0 9.21875 0 L 7.90625 0 C 7.757812 0 7.648438 -0.0546875 7.578125 -0.171875 L 3.109375 -7.546875 C 3.085938 -7.585938 3.0625 -7.601562 3.03125 -7.59375 C 3 -7.582031 2.984375 -7.554688 2.984375 -7.515625 L 3.015625 -0.25 C 3.015625 -0.0820312 2.925781 0 2.75 0 Z M 1.421875 0 "/></g></g></g><g fill="#12229d" fill-opacity="1"><g transform="translate(294.46857, 219.299986)"><g><path d="M 4.90625 0.125 C 4.113281 0.125 3.410156 -0.03125 2.796875 -0.34375 C 2.191406 -0.65625 1.722656 -1.097656 1.390625 -1.671875 C 1.054688 -2.253906 0.890625 -2.914062 0.890625 -3.65625 L 0.890625 -7.53125 C 0.890625 -8.289062 1.054688 -8.957031 1.390625 -9.53125 C 1.722656 -10.101562 2.191406 -10.546875 2.796875 -10.859375 C 3.410156 -11.171875 4.113281 -11.328125 4.90625 -11.328125 C 5.695312 -11.328125 6.394531 -11.171875 7 -10.859375 C 7.601562 -10.554688 8.066406 -10.132812 8.390625 -9.59375 C 8.722656 -9.0625 8.890625 -8.460938 8.890625 -7.796875 L 8.890625 -7.734375 C 8.890625 -7.554688 8.804688 -7.46875 8.640625 -7.46875 L 7.3125 -7.46875 C 7.238281 -7.46875 7.175781 -7.476562 7.125 -7.5 C 7.082031 -7.53125 7.0625 -7.566406 7.0625 -7.609375 L 7.0625 -7.75 C 7.0625 -8.320312 6.863281 -8.796875 6.46875 -9.171875 C 6.082031 -9.546875 5.5625 -9.734375 4.90625 -9.734375 C 4.257812 -9.734375 3.738281 -9.535156 3.34375 -9.140625 C 2.945312 -8.753906 2.75 -8.238281 2.75 -7.59375 L 2.75 -3.59375 C 2.75 -2.957031 2.957031 -2.441406 3.375 -2.046875 C 3.789062 -1.660156 4.328125 -1.46875 4.984375 -1.46875 C 5.628906 -1.46875 6.132812 -1.632812 6.5 -1.96875 C 6.875 -2.3125 7.0625 -2.773438 7.0625 -3.359375 L 7.0625 -4.34375 C 7.0625 -4.40625 7.023438 -4.4375 6.953125 -4.4375 L 5.078125 -4.4375 C 4.898438 -4.4375 4.8125 -4.519531 4.8125 -4.6875 L 4.8125 -5.75 C 4.8125 -5.914062 4.898438 -6 5.078125 -6 L 8.640625 -6 C 8.804688 -6 8.890625 -5.914062 8.890625 -5.75 L 8.890625 -3.765625 C 8.890625 -2.535156 8.53125 -1.578125 7.8125 -0.890625 C 7.09375 -0.210938 6.125 0.125 4.90625 0.125 Z M 4.90625 0.125 "/></g></g></g><g fill="#12229d" fill-opacity="1"><g transform="translate(210.468742, 241.049984)"><g><path d="M 4.765625 0.125 C 3.953125 0.125 3.238281 -0.00390625 2.625 -0.265625 C 2.019531 -0.535156 1.550781 -0.910156 1.21875 -1.390625 C 0.882812 -1.878906 0.71875 -2.445312 0.71875 -3.09375 L 0.71875 -3.421875 C 0.71875 -3.597656 0.800781 -3.6875 0.96875 -3.6875 L 2.28125 -3.6875 C 2.457031 -3.6875 2.546875 -3.601562 2.546875 -3.4375 L 2.546875 -3.1875 C 2.546875 -2.695312 2.757812 -2.285156 3.1875 -1.953125 C 3.625 -1.628906 4.195312 -1.46875 4.90625 -1.46875 C 5.5625 -1.46875 6.050781 -1.601562 6.375 -1.875 C 6.707031 -2.15625 6.875 -2.515625 6.875 -2.953125 C 6.875 -3.253906 6.785156 -3.507812 6.609375 -3.71875 C 6.429688 -3.925781 6.171875 -4.113281 5.828125 -4.28125 C 5.492188 -4.457031 4.988281 -4.671875 4.3125 -4.921875 C 3.5625 -5.203125 2.953125 -5.460938 2.484375 -5.703125 C 2.015625 -5.953125 1.617188 -6.285156 1.296875 -6.703125 C 0.984375 -7.128906 0.828125 -7.65625 0.828125 -8.28125 C 0.828125 -9.226562 1.164062 -9.972656 1.84375 -10.515625 C 2.53125 -11.054688 3.445312 -11.328125 4.59375 -11.328125 C 5.394531 -11.328125 6.097656 -11.1875 6.703125 -10.90625 C 7.316406 -10.632812 7.796875 -10.25 8.140625 -9.75 C 8.484375 -9.257812 8.65625 -8.6875 8.65625 -8.03125 L 8.65625 -7.828125 C 8.65625 -7.648438 8.570312 -7.5625 8.40625 -7.5625 L 7.09375 -7.5625 C 7.007812 -7.5625 6.941406 -7.582031 6.890625 -7.625 C 6.847656 -7.664062 6.828125 -7.710938 6.828125 -7.765625 L 6.828125 -7.9375 C 6.828125 -8.4375 6.617188 -8.859375 6.203125 -9.203125 C 5.796875 -9.554688 5.234375 -9.734375 4.515625 -9.734375 C 3.921875 -9.734375 3.460938 -9.609375 3.140625 -9.359375 C 2.816406 -9.109375 2.65625 -8.757812 2.65625 -8.3125 C 2.65625 -8 2.738281 -7.738281 2.90625 -7.53125 C 3.082031 -7.332031 3.335938 -7.148438 3.671875 -6.984375 C 4.015625 -6.816406 4.546875 -6.609375 5.265625 -6.359375 C 6.023438 -6.066406 6.628906 -5.800781 7.078125 -5.5625 C 7.535156 -5.332031 7.925781 -5.003906 8.25 -4.578125 C 8.570312 -4.160156 8.734375 -3.640625 8.734375 -3.015625 C 8.734375 -2.390625 8.570312 -1.835938 8.25 -1.359375 C 7.9375 -0.890625 7.476562 -0.523438 6.875 -0.265625 C 6.28125 -0.00390625 5.578125 0.125 4.765625 0.125 Z M 4.765625 0.125 "/></g></g></g><g fill="#12229d" fill-opacity="1"><g transform="translate(222.306474, 241.049984)"><g><path d="M 4.953125 0.15625 C 4.160156 0.15625 3.453125 -0.00390625 2.828125 -0.328125 C 2.210938 -0.648438 1.734375 -1.109375 1.390625 -1.703125 C 1.054688 -2.304688 0.890625 -3 0.890625 -3.78125 L 0.890625 -7.421875 C 0.890625 -8.191406 1.0625 -8.875 1.40625 -9.46875 C 1.75 -10.0625 2.226562 -10.519531 2.84375 -10.84375 C 3.457031 -11.164062 4.160156 -11.328125 4.953125 -11.328125 C 5.765625 -11.328125 6.476562 -11.164062 7.09375 -10.84375 C 7.707031 -10.519531 8.1875 -10.0625 8.53125 -9.46875 C 8.875 -8.875 9.046875 -8.191406 9.046875 -7.421875 L 9.046875 -3.78125 C 9.046875 -3 8.875 -2.304688 8.53125 -1.703125 C 8.1875 -1.109375 7.707031 -0.648438 7.09375 -0.328125 C 6.476562 -0.00390625 5.765625 0.15625 4.953125 0.15625 Z M 4.953125 -1.4375 C 5.628906 -1.4375 6.171875 -1.644531 6.578125 -2.0625 C 6.984375 -2.476562 7.1875 -3.03125 7.1875 -3.71875 L 7.1875 -7.4375 C 7.1875 -8.132812 6.984375 -8.691406 6.578125 -9.109375 C 6.171875 -9.523438 5.628906 -9.734375 4.953125 -9.734375 C 4.296875 -9.734375 3.765625 -9.523438 3.359375 -9.109375 C 2.953125 -8.691406 2.75 -8.132812 2.75 -7.4375 L 2.75 -3.71875 C 2.75 -3.03125 2.953125 -2.476562 3.359375 -2.0625 C 3.765625 -1.644531 4.296875 -1.4375 4.953125 -1.4375 Z M 4.953125 -1.4375 "/></g></g></g><g fill="#12229d" fill-opacity="1"><g transform="translate(234.640078, 241.049984)"><g><path d="M 1.421875 0 C 1.253906 0 1.171875 -0.0820312 1.171875 -0.25 L 1.171875 -10.9375 C 1.171875 -11.113281 1.253906 -11.203125 1.421875 -11.203125 L 2.765625 -11.203125 C 2.941406 -11.203125 3.03125 -11.113281 3.03125 -10.9375 L 3.03125 -1.703125 C 3.03125 -1.628906 3.0625 -1.59375 3.125 -1.59375 L 8.40625 -1.59375 C 8.570312 -1.59375 8.65625 -1.507812 8.65625 -1.34375 L 8.65625 -0.25 C 8.65625 -0.0820312 8.570312 0 8.40625 0 Z M 1.421875 0 "/></g></g></g><g fill="#12229d" fill-opacity="1"><g transform="translate(246.173877, 241.049984)"><g><path d="M 5.09375 0.125 C 4.300781 0.125 3.597656 -0.0234375 2.984375 -0.328125 C 2.378906 -0.640625 1.910156 -1.082031 1.578125 -1.65625 C 1.242188 -2.226562 1.078125 -2.882812 1.078125 -3.625 L 1.078125 -10.9375 C 1.078125 -11.113281 1.160156 -11.203125 1.328125 -11.203125 L 2.671875 -11.203125 C 2.835938 -11.203125 2.921875 -11.113281 2.921875 -10.9375 L 2.921875 -3.59375 C 2.921875 -2.96875 3.117188 -2.457031 3.515625 -2.0625 C 3.910156 -1.664062 4.4375 -1.46875 5.09375 -1.46875 C 5.738281 -1.46875 6.257812 -1.664062 6.65625 -2.0625 C 7.050781 -2.457031 7.25 -2.96875 7.25 -3.59375 L 7.25 -10.9375 C 7.25 -11.113281 7.332031 -11.203125 7.5 -11.203125 L 8.84375 -11.203125 C 9.019531 -11.203125 9.109375 -11.113281 9.109375 -10.9375 L 9.109375 -3.625 C 9.109375 -2.882812 8.941406 -2.226562 8.609375 -1.65625 C 8.273438 -1.082031 7.800781 -0.640625 7.1875 -0.328125 C 6.582031 -0.0234375 5.882812 0.125 5.09375 0.125 Z M 5.09375 0.125 "/></g></g></g><g fill="#12229d" fill-opacity="1"><g transform="translate(258.747431, 241.049984)"><g><path d="M 8.46875 -11.203125 C 8.632812 -11.203125 8.71875 -11.113281 8.71875 -10.9375 L 8.71875 -9.84375 C 8.71875 -9.664062 8.632812 -9.578125 8.46875 -9.578125 L 5.59375 -9.578125 C 5.53125 -9.578125 5.5 -9.546875 5.5 -9.484375 L 5.5 -0.25 C 5.5 -0.0820312 5.414062 0 5.25 0 L 3.90625 0 C 3.726562 0 3.640625 -0.0820312 3.640625 -0.25 L 3.640625 -9.484375 C 3.640625 -9.546875 3.609375 -9.578125 3.546875 -9.578125 L 0.796875 -9.578125 C 0.628906 -9.578125 0.546875 -9.664062 0.546875 -9.84375 L 0.546875 -10.9375 C 0.546875 -11.113281 0.628906 -11.203125 0.796875 -11.203125 Z M 8.46875 -11.203125 "/></g></g></g><g fill="#12229d" fill-opacity="1"><g transform="translate(270.4092, 241.049984)"><g><path d="M 1.421875 0 C 1.253906 0 1.171875 -0.0820312 1.171875 -0.25 L 1.171875 -10.9375 C 1.171875 -11.113281 1.253906 -11.203125 1.421875 -11.203125 L 2.765625 -11.203125 C 2.941406 -11.203125 3.03125 -11.113281 3.03125 -10.9375 L 3.03125 -0.25 C 3.03125 -0.0820312 2.941406 0 2.765625 0 Z M 1.421875 0 "/></g></g></g><g fill="#12229d" fill-opacity="1"><g transform="translate(277.000195, 241.049984)"><g><path d="M 4.953125 0.15625 C 4.160156 0.15625 3.453125 -0.00390625 2.828125 -0.328125 C 2.210938 -0.648438 1.734375 -1.109375 1.390625 -1.703125 C 1.054688 -2.304688 0.890625 -3 0.890625 -3.78125 L 0.890625 -7.421875 C 0.890625 -8.191406 1.0625 -8.875 1.40625 -9.46875 C 1.75 -10.0625 2.226562 -10.519531 2.84375 -10.84375 C 3.457031 -11.164062 4.160156 -11.328125 4.953125 -11.328125 C 5.765625 -11.328125 6.476562 -11.164062 7.09375 -10.84375 C 7.707031 -10.519531 8.1875 -10.0625 8.53125 -9.46875 C 8.875 -8.875 9.046875 -8.191406 9.046875 -7.421875 L 9.046875 -3.78125 C 9.046875 -3 8.875 -2.304688 8.53125 -1.703125 C 8.1875 -1.109375 7.707031 -0.648438 7.09375 -0.328125 C 6.476562 -0.00390625 5.765625 0.15625 4.953125 0.15625 Z M 4.953125 -1.4375 C 5.628906 -1.4375 6.171875 -1.644531 6.578125 -2.0625 C 6.984375 -2.476562 7.1875 -3.03125 7.1875 -3.71875 L 7.1875 -7.4375 C 7.1875 -8.132812 6.984375 -8.691406 6.578125 -9.109375 C 6.171875 -9.523438 5.628906 -9.734375 4.953125 -9.734375 C 4.296875 -9.734375 3.765625 -9.523438 3.359375 -9.109375 C 2.953125 -8.691406 2.75 -8.132812 2.75 -7.4375 L 2.75 -3.71875 C 2.75 -3.03125 2.953125 -2.476562 3.359375 -2.0625 C 3.765625 -1.644531 4.296875 -1.4375 4.953125 -1.4375 Z M 4.953125 -1.4375 "/></g></g></g><g fill="#12229d" fill-opacity="1"><g transform="translate(289.333801, 241.049984)"><g><path d="M 1.421875 0 C 1.253906 0 1.171875 -0.0820312 1.171875 -0.25 L 1.171875 -10.9375 C 1.171875 -11.113281 1.253906 -11.203125 1.421875 -11.203125 L 2.703125 -11.203125 C 2.847656 -11.203125 2.957031 -11.144531 3.03125 -11.03125 L 7.5 -3.703125 C 7.519531 -3.648438 7.539062 -3.628906 7.5625 -3.640625 C 7.59375 -3.648438 7.609375 -3.679688 7.609375 -3.734375 L 7.609375 -10.9375 C 7.609375 -11.113281 7.695312 -11.203125 7.875 -11.203125 L 9.21875 -11.203125 C 9.382812 -11.203125 9.46875 -11.113281 9.46875 -10.9375 L 9.46875 -0.25 C 9.46875 -0.0820312 9.382812 0 9.21875 0 L 7.90625 0 C 7.757812 0 7.648438 -0.0546875 7.578125 -0.171875 L 3.109375 -7.546875 C 3.085938 -7.585938 3.0625 -7.601562 3.03125 -7.59375 C 3 -7.582031 2.984375 -7.554688 2.984375 -7.515625 L 3.015625 -0.25 C 3.015625 -0.0820312 2.925781 0 2.75 0 Z M 1.421875 0 "/></g></g></g></svg>